<?xml version="1.0" standalone="no"?>
<!DOCTYPE svg PUBLIC "-//W3C//DTD SVG 20010904//EN"
 "http://www.w3.org/TR/2001/REC-SVG-20010904/DTD/svg10.dtd">
<svg version="1.0" xmlns="http://www.w3.org/2000/svg"
 width="76.000000pt" height="40.000000pt" viewBox="0 0 76.000000 40.000000"
 preserveAspectRatio="xMidYMid meet">
<metadata>
Created by potrace 1.16, written by Peter Selinger 2001-2019
</metadata>
<g transform="translate(0.000000,40.000000) scale(0.100000,-0.100000)"
fill="#000000" stroke="none">
<path d="M120 293 c1 -81 71 -171 150 -193 19 -6 68 -10 109 -10 l73 0 -14 22
c-12 18 -28 24 -74 29 -69 7 -112 27 -147 69 -25 29 -29 38 -41 93 -5 20 -12
27 -31 27 -22 0 -25 -4 -25 -37z"/>
<path d="M220 313 c0 -27 35 -79 66 -100 15 -9 57 -20 93 -24 54 -6 69 -12 88
-33 13 -15 23 -36 23 -47 0 -12 7 -19 20 -19 24 0 26 20 6 58 -26 49 -61 74
-113 79 -26 2 -59 6 -71 9 -30 6 -72 51 -72 75 0 12 -7 19 -20 19 -12 0 -20
-7 -20 -17z"/>
<path d="M310 316 c0 -22 22 -33 83 -40 32 -3 71 -13 87 -21 41 -21 79 -71 91
-121 10 -37 15 -45 33 -42 18 3 21 9 19 47 -3 66 -46 129 -112 163 -44 23 -66
28 -127 28 -56 0 -74 -3 -74 -14z"/>
</g>
</svg>
